<svg width="20" height="24" viewBox="0 0 20 24" fill="none" xmlns="http://www.w3.org/2000/svg">
<path fill-rule="evenodd" clip-rule="evenodd" d="M2.55857 0.363708H11.9703C12.325 0.363708 12.6682 0.489393 12.939 0.718448L18.7416 5.62644C19.0785 5.91145 19.2729 6.33038 19.2729 6.7717V21.7349C19.2729 23.851 19.2487 24.0001 17.0781 24.0001H2.55857C0.387935 24.0001 0.36377 23.851 0.36377 21.7349V2.62886C0.36377 0.512765 0.387935 0.363708 2.55857 0.363708ZM2.72739 11.9999C2.72739 11.4477 3.17511 10.9999 3.72739 10.9999H12.3638C12.916 10.9999 13.3638 11.4477 13.3638 11.9999V12.3636C13.3638 12.9159 12.916 13.3636 12.3638 13.3636H3.72739C3.17511 13.3636 2.72739 12.9159 2.72739 12.3636V11.9999ZM3.72739 15.7272C3.17511 15.7272 2.72739 16.1749 2.72739 16.7272V17.0908C2.72739 17.6431 3.17511 18.0908 3.72739 18.0908H7.63648C8.18877 18.0908 8.63648 17.6431 8.63648 17.0908V16.7272C8.63648 16.1749 8.18877 15.7272 7.63648 15.7272H3.72739Z" fill="black"/>
</svg>
