<svg width="28" height="28" viewBox="0 0 28 28" fill="none" xmlns="http://www.w3.org/2000/svg">
<path d="M10.4525 25.668C11.0606 27.0355 12.4091 27.9998 14.0007 27.9998C15.5922 27.9998 16.9407 27.0355 17.5488 25.668C16.4266 25.7229 15.2596 25.7598 14.0007 25.7598C12.7418 25.7598 11.5748 25.7228 10.4525 25.668Z" fill="black"/>
<path d="M26.3531 19.74C24.8769 17.8785 22.3996 14.2195 22.3996 10.64C22.3996 7.09073 20.1192 3.89758 16.7995 2.72382C16.7592 1.21406 15.5183 0 14.0006 0C12.4819 0 11.2421 1.21406 11.2017 2.72382C7.88095 3.89758 5.60064 7.09073 5.60064 10.64C5.60064 14.2207 3.12434 17.8785 1.64707 19.74C1.15428 20.3616 1.00192 21.1825 1.24052 21.9363C1.47349 22.6721 2.05361 23.2422 2.79282 23.4595C4.08755 23.8415 6.20992 24.2715 9.44676 24.491C10.8479 24.5851 12.3543 24.64 14.0007 24.64C15.646 24.64 17.1524 24.5851 18.5535 24.491C21.7914 24.2715 23.9127 23.8415 25.2085 23.4595C25.9477 23.2422 26.5268 22.6722 26.7597 21.9363C26.9983 21.1825 26.8448 20.3616 26.3531 19.74Z" fill="black"/>
</svg>
