<svg width="56" height="56" viewBox="0 0 56 56" fill="none" xmlns="http://www.w3.org/2000/svg">
<rect width="56" height="56" rx="28" fill="white"/>
<path d="M24.4525 39.668C25.0606 41.0355 26.4091 41.9998 28.0006 41.9998C29.5922 41.9998 30.9407 41.0355 31.5488 39.668C30.4266 39.7229 29.2596 39.7598 28.0006 39.7598C26.7418 39.7598 25.5748 39.7228 24.4525 39.668Z" fill="black"/>
<path d="M40.3531 33.74C38.8769 31.8785 36.3995 28.2195 36.3995 24.64C36.3995 21.0907 34.1192 17.8976 30.7995 16.7238C30.7592 15.2141 29.5183 14 28.0006 14C26.4819 14 25.2421 15.2141 25.2017 16.7238C21.8809 17.8976 19.6006 21.0907 19.6006 24.64C19.6006 28.2207 17.1243 31.8785 15.6471 33.74C15.1543 34.3616 15.0019 35.1825 15.2405 35.9363C15.4735 36.6721 16.0536 37.2422 16.7928 37.4595C18.0875 37.8415 20.2099 38.2715 23.4468 38.491C24.8479 38.5851 26.3543 38.64 28.0007 38.64C29.646 38.64 31.1524 38.5851 32.5535 38.491C35.7914 38.2715 37.9127 37.8415 39.2085 37.4595C39.9477 37.2422 40.5268 36.6722 40.7597 35.9363C40.9983 35.1825 40.8448 34.3616 40.3531 33.74Z" fill="black"/>
<circle cx="41" cy="15" r="13" fill="#FABB18"/>
<path d="M35.168 11.964V10.116H38.724V20H36.652V11.964H35.168ZM40.1391 18.446C43.3031 16.2527 44.8851 14.4327 44.8851 12.986C44.8851 12.5473 44.7778 12.202 44.5631 11.95C44.3578 11.698 44.0311 11.572 43.5831 11.572C42.6591 11.572 42.1691 12.202 42.1131 13.462H40.1951C40.2511 12.2953 40.6058 11.4133 41.2591 10.816C41.9124 10.2093 42.7384 9.906 43.7371 9.906C44.7544 9.906 45.5338 10.172 46.0751 10.704C46.6258 11.2267 46.9011 11.9267 46.9011 12.804C46.9011 13.4947 46.6958 14.19 46.2851 14.89C45.8838 15.5807 45.3704 16.22 44.7451 16.808C44.1198 17.3867 43.4618 17.886 42.7711 18.306H47.0971V19.916H40.1391V18.446Z" fill="black"/>
</svg>
